<?xml version="1.0"?>
<svg xmlns="http://www.w3.org/2000/svg" xmlns:xlink="http://www.w3.org/1999/xlink" xmlns:svgjs="http://svgjs.com/svgjs" version="1.1" width="512" height="512" x="0" y="0" viewBox="0 0 512.001 512" style="enable-background:new 0 0 512 512" xml:space="preserve" class=""><g><path xmlns="http://www.w3.org/2000/svg" d="m0 256c0-141.382812 114.613281-256 256-256s256 114.617188 256 256c0 141.386719-114.613281 256-256 256s-256-114.613281-256-256zm0 0" fill="#fd3232" data-original="#fded32" style="" class=""/><path xmlns="http://www.w3.org/2000/svg" d="m168.832031 400.003906c6.664063-6.667968 17.078125-7.773437 24.996094-2.660156l26.171875 16.910156 44.984375 29.058594c23.75 15.34375 54.988281 12.023438 74.984375-7.972656l171.917969-171.914063c.070312-2.46875.113281-4.941406.113281-7.425781 0-141.382812-114.613281-256-256-256-2.296875 0-4.589844.0351562-6.871094.09375l-172.203125 172.203125c-19.996093 19.996094-23.316406 51.234375-7.972656 74.988281l28.886719 44.714844 17.082031 26.441406c5.113281 7.914063 4.007813 18.328125-2.65625 24.992188l-58.300781 58.300781c-15.4375 15.433594-15.617188 40.347656-.542969 56.011719 15.550781 16.160156 41.8125 15.855468 57.671875-.003906zm-72.441406 15.871094c5.859375 5.859375 5.859375 15.355469 0 21.210938-5.855469 5.859374-15.355469 5.859374-21.210937 0-5.859376-5.855469-5.859376-15.351563 0-21.210938 5.855468-5.859375 15.355468-5.859375 21.210937 0zm0 0" fill="#dca050" data-original="#dca050" style="" class=""/><path xmlns="http://www.w3.org/2000/svg" d="m76.925781 172.296875 172.203125-172.203125c2.28125-.0585938 4.574219-.09375 6.871094-.09375 11.667969 0 23.148438.796875 34.402344 2.308594l-205.066406 205.066406c-10.292969 10.292969-16.402344 23.402344-18.109376 37.046875-13.316406-23.351563-9.503906-52.921875 9.699219-72.125zm0 0" fill="#c98001" data-original="#c98001" style="" class=""/><path xmlns="http://www.w3.org/2000/svg" d="m247.265625 102.101562c16.773437-16.777343 35.628906-31.253906 55.636719-44.003906 4.453125-2.835937 8.875-6.367187 13.039062-10.53125 4.164063-4.164062 7.695313-8.585937 10.53125-13.039062 4.417969-6.933594 9.039063-13.6875 13.894532-20.304688 74.871093 25.945313 134.632812 85.152344 158.707031 161.234375-8.523438 8.109375-17.753907 14.6875-28.363281 19.777344-6.640626 3.1875-13.464844 8.011719-19.710938 14.257813-6.246094 6.246093-11.070312 13.074218-14.257812 19.714843-5.558594 11.582031-13.296876 21.984375-22.378907 31.066407l-31.246093 31.242187-162.636719-162.632813zm0 0" fill="#a65759" data-original="#a65759" style="" class=""/><path xmlns="http://www.w3.org/2000/svg" d="m247.265625 102.101562c16.773437-16.773437 35.625-31.253906 55.632813-43.996093 4.453124-2.839844 8.875-6.371094 13.042968-10.539063 4.164063-4.164062 7.695313-8.585937 10.535156-13.039062 4.414063-6.933594 9.035157-13.6875 13.890626-20.304688 9.667968 3.351563 19.113281 7.210938 28.214843 11.648438-13.304687 16.835937-13.433593 40.621094-.1875 57.449218 9.386719 11.921876 15.84375 21.8125 13.953125 23.703126-1.835937 1.835937-11.214844-4.203126-22.675781-13.148438-16.53125-12.902344-39.691406-13.089844-56.429687-.457031-13.226563 9.984375-27.542969 21.261719-35.472657 29.191406l-26.78125 26.78125-20.507812-20.507813zm0 0" fill="#8f4a4b" data-original="#8f4a4b" style=""/><path xmlns="http://www.w3.org/2000/svg" d="m375.5 299.132812c-7.808594 7.8125-20.472656 7.8125-28.28125 0l-134.351562-134.347656c-7.808594-7.8125-7.808594-20.476562 0-28.285156 31.242187-31.242188 81.894531-31.242188 113.136718 0l49.5 49.496094c31.238282 31.242187 31.238282 81.894531-.003906 113.136718zm0 0" fill="#f5a6d1" data-original="#f5a6d1" style="" class=""/><path xmlns="http://www.w3.org/2000/svg" d="m237.675781 189.589844c2.546875-2.433594 5.289063-4.980469 8.136719-7.566406 2.851562-2.578126 5.835938-5.160157 9.097656-7.347657 12.105469-7.066406 24.925782-11.1875 37.453125-16.050781 2.507813-.972656 5.003907-1.972656 7.476563-3.035156-4.242188 9.898437-13.433594 14.851562-21.460938 21.050781-2.066406 1.492187-4.089844 3.03125-5.984375 4.707031-1.890625 1.675782-3.660156 3.484375-5.214843 5.511719-2.691407 2.828125-5.328126 5.769531-7.910157 8.617187-2.585937 2.851563-5.132812 5.589844-7.570312 8.136719zm118.765625 24.914062c-15.589844 4.726563-22.660156 20.285156-33.046875 31.472656-2.253906 2.394532-4.570312 4.660157-6.996093 6.699219-2.746094 2.632813-5.464844 5.191407-8.011719 7.625l14.023437 14.027344c2.4375-2.550781 4.984375-5.289063 7.570313-8.136719 2.574219-2.855468 5.171875-5.828125 7.675781-8.859375 6.027344-11.230469 11.683594-22.542969 16.210938-35.398437 2.023437-3.957032 3.179687-6.601563 2.574218-7.429688zm-31.011718-33.910156c-19.933594 4.695312-29.832032 24.496094-44.371094 36.726562-2.753906 2.632813-5.480469 5.1875-8.027344 7.625 0 0 3.503906 3.507813 7.011719 7.011719 3.503906 3.507813 7.011719 7.011719 7.011719 7.011719 14.910156-14.789062 19.855468-36.707031 34.523437-51.5625 2.96875-3.566406 4.539063-6.007812 3.851563-6.8125zm0 0" fill="#e659a9" data-original="#e659a9" style="" class=""/><path xmlns="http://www.w3.org/2000/svg" d="m309.484375 365.152344c-7.808594 7.808594-20.472656 7.808594-28.285156 0l-134.351563-134.351563c-7.808594-7.808593-7.808594-20.472656 0-28.285156 6.730469-6.730469 20.117188-20.113281 23.59375-23.589844 31.242188-31.242187 81.894532-31.242187 113.136719 0l49.496094 49.496094c31.242187 31.242187 31.242187 81.898437 0 113.136719-3.472657 3.476562-16.859375 16.863281-23.589844 23.59375zm0 0" fill="#8f4a4b" data-original="#8f4a4b" style=""/><path xmlns="http://www.w3.org/2000/svg" d="m333.074219 341.558594c-3.472657 3.476562-18.027344 18.027344-24.757813 24.757812-7.808594 7.8125-20.472656 7.8125-28.28125 0l-113.847656-113.84375c-7.808594-7.808594-7.808594-20.472656 0-28.28125 6.730469-6.730468 21.285156-21.285156 24.757812-24.757812 31.242188-31.242188 81.894532-31.242188 113.136719 0l28.992188 28.992187c31.242187 31.238281 31.242187 81.894531 0 113.132813zm0 0" fill="#a65759" data-original="#a65759" style="" class=""/><path xmlns="http://www.w3.org/2000/svg" d="m304.789062 369.84375c-7.808593 7.8125-20.472656 7.8125-28.28125 0l-134.351562-134.347656c-7.808594-7.8125-7.808594-20.476563 0-28.285156 31.242188-31.242188 81.894531-31.242188 113.136719 0l49.496093 49.496093c31.242188 31.242188 31.242188 81.894531 0 113.136719zm0 0" fill="#f5a6d1" data-original="#f5a6d1" style="" class=""/><path xmlns="http://www.w3.org/2000/svg" d="m195.3125 259.316406c-2.390625 2.253906-4.660156 4.570313-6.699219 6.996094-2.632812 2.746094-5.1875 5.464844-7.625 8.011719l-14.023437-14.023438c2.550781-2.433593 5.289062-4.980469 8.136718-7.566406 2.851563-2.574219 5.824219-5.171875 8.859376-7.675781 11.230468-6.027344 22.542968-11.6875 35.394531-16.214844 3.957031-2.023438 6.605469-3.179688 7.429687-2.574219-4.726562 15.589844-20.28125 22.660157-31.472656 33.046875zm65.382812-2.03125c-.804687-.691406-3.246093.878906-6.808593 3.847656-14.855469 14.667969-36.777344 19.617188-51.566407 34.523438 0 0 3.503907 3.507812 7.011719 7.011719 3.507813 3.507812 7.011719 7.011719 7.011719 7.011719 2.4375-2.546876 4.992188-5.269532 7.625-8.027344 12.230469-14.539063 32.03125-24.4375 36.726562-44.367188zm3.953126 47.046875c-1.492188 2.066407-3.03125 4.089844-4.707032 5.984375-1.675781 1.890625-3.484375 3.660156-5.511718 5.214844-2.828126 2.691406-5.773438 5.328125-8.621094 7.910156-2.847656 2.585938-5.585938 5.132813-8.132813 7.570313l14.019531 14.023437c2.4375-2.546875 4.984376-5.289062 7.570313-8.136718 2.578125-2.851563 5.160156-5.835938 7.347656-9.101563 7.066407-12.101563 11.1875-24.921875 16.050781-37.453125.972657-2.503906 1.972657-5 3.035157-7.472656-9.898438 4.242187-14.851563 13.433594-21.050781 21.460937zm0 0" fill="#e659a9" data-original="#e659a9" style="" class=""/><path xmlns="http://www.w3.org/2000/svg" d="m217.324219 380c-.546875 0-1.074219-.179688-1.515625-.503906-8.050782-5.882813-18.886719-9.496094-30.808594-9.496094s-22.757812 3.613281-30.808594 9.496094c-.441406.324218-.96875.503906-1.515625.503906-1.335937 0-2.472656-1.015625-2.574219-2.347656-.066406-.875-.101562-1.761719-.101562-2.652344 0-19.328125 15.667969-35 35-35 19.328125 0 35 15.671875 35 35 0 .894531-.035156 1.777344-.105469 2.652344-.097656 1.332031-1.234375 2.347656-2.570312 2.347656zm0 0" fill="#fdf7bd" data-original="#fdf7bd" style=""/><path xmlns="http://www.w3.org/2000/svg" d="m350 370c0 5.523438-4.476562 10-10 10s-10-4.476562-10-10 4.476562-10 10-10 10 4.476562 10 10zm20-10c-5.523438 0-10 4.476562-10 10s4.476562 10 10 10 10-4.476562 10-10-4.476562-10-10-10zm-60 40c-5.523438 0-10 4.476562-10 10s4.476562 10 10 10 10-4.476562 10-10-4.476562-10-10-10zm0 0" fill="#31662b" data-original="#31662b" style=""/></g></svg>
